<svg xmlns="http://www.w3.org/2000/svg" version="1.1" xmlns:xlink="http://www.w3.org/1999/xlink" xmlns:svgjs="http://svgjs.dev/svgjs" width="1440" height="560" preserveAspectRatio="none" viewBox="0 0 1440 560"><g mask="url(&quot;#SvgjsMask1056&quot;)" fill="none"><rect width="1440" height="560" x="0" y="0" fill="rgba(255, 255, 255, 1)"></rect><path d="M1108.1 19.63 L1237.1399999999999 110.67L1274.1219846984907 -36.351984698490824z" fill="rgba(0, 0, 0, 1)"></path><path d="M765.14 411.47L752.96 407.51 754.15 394.76 741.97 390.8 743.16 378.05 730.98 374.1 732.16 361.35M771.82 407.07L759.64 403.12 760.83 390.37 748.65 386.41 749.84 373.66 737.66 369.7 738.85 356.95M778.51 402.68L766.33 398.72 767.51 385.97 755.33 382.01 756.52 369.26 744.34 365.3 745.53 352.55" stroke="rgba(0, 0, 0, 1)" stroke-width="1.24" stroke-dasharray="4, 4"></path><path d="M1110.59 493.08 L952.9599999999999 559.48L911.3086187622213 405.8136187622213z" fill="rgba(255, 0, 0, 1)"></path><path d="M247.05 375.83a5.6 5.6 0 1 0 9.21-6.38 5.6 5.6 0 1 0-9.21 6.38zM260.21 366.72a5.6 5.6 0 1 0 9.2-6.37 5.6 5.6 0 1 0-9.2 6.37zM273.36 357.61a5.6 5.6 0 1 0 9.21-6.37 5.6 5.6 0 1 0-9.21 6.37zM286.51 348.5a5.6 5.6 0 1 0 9.21-6.37 5.6 5.6 0 1 0-9.21 6.37z" stroke="rgba(255, 0, 0, 1)" stroke-width="1" stroke-dasharray="2, 2"></path><path d="M747.19 32.93L749.37 45.55 737.54 50.44 739.72 63.06 727.88 67.96 730.06 80.58 718.22 85.47M740.19 29.06L742.37 41.68 730.53 46.58 732.71 59.2 720.88 64.09 723.05 76.71 711.22 81.61" stroke="rgba(255, 0, 0, 1)" stroke-width="1.83"></path><rect width="158.4" height="158.4" clip-path="url(&quot;#SvgjsClipPath1057&quot;)" x="1309.25" y="348.4" fill="url(&quot;#SvgjsPattern1058&quot;)" transform="rotate(257.81, 1388.45, 427.6)"></rect><circle r="69.02606213076324" cx="530.75" cy="265.98" stroke="rgba(0, 0, 0, 1)" stroke-width="1"></circle><path d="M1089.49 516.59a5.6 5.6 0 1 0-10.96 2.28 5.6 5.6 0 1 0 10.96-2.28zM1073.83 519.85a5.6 5.6 0 1 0-10.97 2.29 5.6 5.6 0 1 0 10.97-2.29zM1058.16 523.11a5.6 5.6 0 1 0-10.96 2.29 5.6 5.6 0 1 0 10.96-2.29zM1042.5 526.38a5.6 5.6 0 1 0-10.96 2.28 5.6 5.6 0 1 0 10.96-2.28z" fill="rgba(0, 0, 0, 1)"></path><path d="M891.16 24.42a5.6 5.6 0 1 0-4.46 10.28 5.6 5.6 0 1 0 4.46-10.28zM884.78 39.1a5.6 5.6 0 1 0-4.46 10.27 5.6 5.6 0 1 0 4.46-10.27zM878.4 53.77a5.6 5.6 0 1 0-4.46 10.27 5.6 5.6 0 1 0 4.46-10.27zM872.02 68.44a5.6 5.6 0 1 0-4.46 10.27 5.6 5.6 0 1 0 4.46-10.27z" fill="rgba(0, 0, 0, 1)"></path><path d="M773.54 444.41999999999996 L754.65 447.86999999999995L756.8163178213624 438.8663178213624z" fill="rgba(0, 0, 0, 1)"></path><rect width="104.6" height="104.6" clip-path="url(&quot;#SvgjsClipPath1059&quot;)" x="1037.24" y="496.24" fill="url(&quot;#SvgjsPattern1060&quot;)" transform="rotate(241.58, 1089.54, 548.54)"></rect><rect width="120" height="120" clip-path="url(&quot;#SvgjsClipPath1061&quot;)" x="268.7" y="433.52" fill="url(&quot;#SvgjsPattern1062&quot;)" transform="rotate(153.08, 328.7, 493.52)"></rect></g><defs><mask id="SvgjsMask1056"><rect width="1440" height="560" fill="#ffffff"></rect></mask><pattern x="0" y="0" width="7.92" height="7.92" patternUnits="userSpaceOnUse" id="SvgjsPattern1058"><path d="M3.96 1L3.96 6.92M1 3.96L6.92 3.96" stroke="rgba(255, 0, 0, 1)" fill="none" stroke-width="1"></path></pattern><clipPath id="SvgjsClipPath1057"><circle r="39.6" cx="1388.45" cy="427.6"></circle></clipPath><pattern x="0" y="0" width="104.6" height="10.46" patternUnits="userSpaceOnUse" id="SvgjsPattern1060"><rect width="104.6" height="5.23" x="0" y="0" fill="rgba(255, 0, 0, 1)"></rect><rect width="104.6" height="5.23" x="0" y="5.23" fill="rgba(0, 0, 0, 0)"></rect></pattern><clipPath id="SvgjsClipPath1059"><circle r="26.15" cx="1089.54" cy="548.54"></circle></clipPath><pattern x="0" y="0" width="120" height="6" patternUnits="userSpaceOnUse" id="SvgjsPattern1062"><rect width="120" height="3" x="0" y="0" fill="rgba(255, 0, 0, 1)"></rect><rect width="120" height="3" x="0" y="3" fill="rgba(0, 0, 0, 0)"></rect></pattern><clipPath id="SvgjsClipPath1061"><circle r="30" cx="328.7" cy="493.52"></circle></clipPath></defs></svg>